<svg width="120" height="118" viewBox="0 0 120 118" fill="none" xmlns="http://www.w3.org/2000/svg">
<g clip-path="url(#clip0_484_3)">
<path d="M60 118C93.1371 118 120 91.5848 120 59C120 26.4152 93.1371 0 60 0C26.8629 0 0 26.4152 0 59C0 91.5848 26.8629 118 60 118Z" fill="#E9573E"/>
<path fill-rule="evenodd" clip-rule="evenodd" d="M45.1555 73.8553L76.043 74.1398V81.046L89.6391 87.4215L59.1788 115.526L33.0409 86.2358L45.1555 81.1644V73.8553Z" fill="#F9DCA4"/>
<path fill-rule="evenodd" clip-rule="evenodd" d="M103.841 99.275C98.2346 105.191 91.448 109.908 83.9048 113.13C76.3617 116.351 68.2241 118.01 60.0002 118C57.5096 118 55.0214 117.849 52.5497 117.548C44.9694 116.48 37.6352 114.125 30.8739 110.59C25.1677 107.467 20.0157 103.453 15.6195 98.7041L18.1107 92.785L40.1069 83.1349C41.806 91.7959 48.3302 105.16 59.8662 112.734C65.2617 109.53 69.9442 105.288 73.6333 100.262C77.3224 95.2368 79.9423 89.5309 81.3362 83.4862L100.876 92.848L103.841 99.275Z" fill="#677079"/>
<path opacity="0.11" fill-rule="evenodd" clip-rule="evenodd" d="M77.2643 81.6169C78.6779 82.2795 81.0954 83.3889 81.3304 83.5244C77.3886 95.6834 50.806 100.136 42.9691 82.0809L77.2643 81.6169Z" fill="black"/>
<path fill-rule="evenodd" clip-rule="evenodd" d="M60.4449 16.1C101.767 16.1 85.6624 83.4366 60.4449 83.4366C36.6273 83.4366 19.1224 16.1 60.4449 16.1Z" fill="#FFE8BE"/>
<path fill-rule="evenodd" clip-rule="evenodd" d="M35.6603 45.9113C29.6991 48.4699 34.7671 60.5888 38.5186 60.5334C36.9627 55.7923 36.0028 50.8818 35.6603 45.9113Z" fill="#F9DCA4"/>
<path fill-rule="evenodd" clip-rule="evenodd" d="M85.709 45.9113C91.6702 48.468 86.6022 60.5888 82.8527 60.5334C84.4076 55.7922 85.3668 50.8816 85.709 45.9113Z" fill="#F9DCA4"/>
<path fill-rule="evenodd" clip-rule="evenodd" d="M45.4293 29.4753C44.2798 34.7605 44.6836 40.0151 39.5885 40.9851C38.3768 41.2142 37.5749 42.8276 37.3127 44.2501C36.7218 47.3531 36.4744 50.51 36.5749 53.6654C36.7768 54.7518 35.8059 51.5803 35.8059 51.5803L35.6409 45.5199C35.6409 45.5199 35.569 44.359 35.5962 42.589C35.6545 38.9993 36.07 33.1795 37.9186 31.3999C40.6778 28.7459 45.4293 29.4753 45.4293 29.4753Z" fill="#AD835F"/>
<path fill-rule="evenodd" clip-rule="evenodd" d="M75.9129 29.4753C77.0624 34.7605 76.6604 40.0151 81.7537 40.9851C82.9653 41.2142 83.7692 42.8276 84.0294 44.2501C84.5958 47.3659 84.799 50.5349 84.6352 53.6959C84.4313 54.7843 85.4022 51.6109 85.4022 51.6109L85.7245 45.5428C85.7245 45.5428 85.7731 44.359 85.744 42.589C85.6896 38.9993 85.2741 33.1795 83.4236 31.3999C80.6643 28.7459 75.9129 29.4753 75.9129 29.4753Z" fill="#AD835F"/>
<path fill-rule="evenodd" clip-rule="evenodd" d="M49.2506 88.7428C46.3186 85.9608 43.973 83.8032 41.8448 81.6436C39.1166 78.8731 38.1924 76.0644 37.6623 71.1458C36.4591 62.6464 35.7828 54.0829 35.637 45.5027C35.637 45.5027 37.6448 57.5949 41.3885 63.556C43.3108 66.6167 51.1749 59.4221 54.3109 58.3281C55.3771 57.8429 56.5788 57.7264 57.7209 57.9975C58.8629 58.2685 59.8783 58.9112 60.6021 59.8212C61.3127 58.9097 62.319 58.2646 63.4538 57.993C64.5887 57.7214 65.7839 57.8396 66.841 58.3281C69.9789 59.4221 77.7342 65.5685 79.7653 63.556C84.6488 58.7138 85.7012 45.5199 85.7012 45.5199C85.4972 54.1958 84.7651 62.8519 83.509 71.4418C82.8041 76.685 82.4469 78.7165 80.6236 80.7672C77.9473 83.723 74.9743 86.4053 71.7497 88.7733C70.142 90.0259 67.3478 91.2021 60.2293 91.16C53.6157 91.1219 50.9031 90.3104 49.2506 88.7428Z" fill="#60350A"/>
<path fill-rule="evenodd" clip-rule="evenodd" d="M76.9012 30.5445C77.931 30.3485 78.9971 30.4681 79.9556 30.8871C80.914 31.306 81.7186 32.0043 82.2605 32.8873C85.2818 37.8766 85.5323 38.5201 85.5323 38.5201C85.5323 38.5201 85.175 29.5956 84.9595 28.5339C85.2193 28.2987 85.5622 28.1726 85.9152 28.1826C86.2682 28.1926 86.6032 28.3379 86.8488 28.5874C87.0624 29.0113 85.9867 19.6133 80.3731 17.8108C78.3206 12.0788 71.142 7.83231 71.142 7.83231L70.8177 11.0172C70.0949 8.85505 68.7392 6.95075 66.9206 5.54288C65.1021 4.13502 62.9014 3.28619 60.5944 3.10275C61.8895 4.53671 61.5788 5.58496 61.5788 5.58496C59.5585 4.75266 57.3845 4.34175 55.1944 4.37823C55.4662 6.07567 53.4681 7.88196 53.4681 7.88196C53.4681 7.88196 52.2274 6.02221 47.3147 5.38638C46.4506 8.46432 44.8293 8.99513 43.2662 10.4291C41.9529 11.7516 40.7448 13.1713 39.6526 14.6756C39.6526 14.6756 39.8137 11.7027 40.8933 10.853C41.2992 10.5895 31.736 14.2956 36.5205 28.1062C35.6634 28.0858 34.8243 28.3502 34.1389 28.8568C33.4536 29.3633 32.962 30.0824 32.7438 30.8978C35.4428 31.6405 34.3263 35.6521 35.837 38.2527C36.8991 35.2359 37.6021 29.3588 44.2409 30.8978C48.9943 31.9995 53.5575 34.3614 59.0371 34.5504C66.7789 34.8158 69.7187 30.8195 76.9012 30.5445Z" fill="#60350A"/>
<path fill-rule="evenodd" clip-rule="evenodd" d="M62.942 73.6911C63.6985 73.8157 64.4734 73.7801 65.2148 73.5864C65.9563 73.3928 66.6471 73.0457 67.241 72.5683C68.6391 70.9835 69.7789 68.7324 67.6585 67.5218C65.5886 66.0764 63.2103 65.1151 60.7051 64.7112C58.1848 65.1083 55.7907 66.0685 53.707 67.518C51.105 68.9978 52.6973 70.9835 54.0973 72.5683C54.6912 73.0457 55.382 73.3928 56.1234 73.5864C56.8648 73.7801 57.6398 73.8157 58.3963 73.6911C56.8216 68.2989 64.5187 68.2989 62.942 73.6911Z" fill="#FFE8BE"/>
</g>
<defs>
<clipPath id="clip0_484_3">
<rect width="120" height="118" fill="white"/>
</clipPath>
</defs>
</svg>
